<svg width="40" height="40" viewBox="0 0 40 40" fill="none" xmlns="http://www.w3.org/2000/svg">
  <g transform="matrix(0.264613, 0, 0, 0.290065, -1.955474, -4.479473)">
    <path d="M 120.831 57.254 L 84.693 109.505 C 84.31 110.059 83.756 110.474 83.115 110.687 C 82.474 110.9 81.781 110.898 81.141 110.684 C 80.502 110.469 79.95 110.052 79.57 109.497 C 79.19 108.941 79.003 108.277 79.037 107.606 L 80.483 78.758 L 57.134 73.806 C 56.635 73.701 56.17 73.474 55.781 73.147 C 55.391 72.819 55.088 72.401 54.9 71.929 C 54.712 71.457 54.643 70.946 54.701 70.441 C 54.758 69.936 54.939 69.453 55.229 69.035 L 91.368 16.784 C 91.751 16.229 92.305 15.814 92.946 15.602 C 93.587 15.389 94.28 15.39 94.92 15.605 C 95.559 15.82 96.111 16.237 96.491 16.792 C 96.87 17.348 97.058 18.012 97.024 18.683 L 95.577 47.531 L 118.926 52.483 C 119.425 52.589 119.89 52.815 120.28 53.143 C 120.67 53.47 120.972 53.888 121.16 54.36 C 121.349 54.832 121.417 55.343 121.36 55.848 C 121.303 56.353 121.121 56.836 120.831 57.255 L 120.831 57.254 Z" fill="#FCC72B"/>
    <path d="M 82.987 153.343 C 82.025 153.344 81.074 153.156 80.185 152.788 C 79.297 152.42 78.491 151.88 77.812 151.2 L 43.666 117.056 C 42.3 115.683 41.534 113.824 41.537 111.887 C 41.539 109.95 42.31 108.092 43.68 106.723 C 45.049 105.353 46.906 104.582 48.843 104.579 C 50.781 104.577 52.64 105.342 54.013 106.708 L 82.987 135.678 L 146.105 72.563 C 147.481 71.209 149.336 70.454 151.266 70.462 C 153.197 70.469 155.046 71.24 156.41 72.605 C 157.775 73.97 158.546 75.818 158.554 77.749 C 158.561 79.679 157.806 81.534 156.452 82.91 L 88.16 151.2 C 87.481 151.881 86.675 152.42 85.787 152.788 C 84.899 153.156 83.947 153.344 82.987 153.343 Z" fill="#729B1B"/>
    <path d="M 82.957 153.343 C 83.918 153.344 84.87 153.156 85.758 152.788 C 86.646 152.42 87.453 151.88 88.132 151.2 L 122.278 117.056 C 123.644 115.683 124.41 113.824 124.407 111.887 C 124.405 109.95 123.634 108.092 122.264 106.723 C 120.894 105.353 119.037 104.582 117.1 104.579 C 115.163 104.577 113.304 105.342 111.93 106.708 L 82.957 135.678 L 19.839 72.563 C 18.463 71.209 16.608 70.454 14.677 70.462 C 12.747 70.469 10.898 71.24 9.533 72.605 C 8.168 73.97 7.398 75.818 7.39 77.749 C 7.382 79.679 8.138 81.534 9.491 82.91 L 77.784 151.2 C 78.463 151.881 79.269 152.42 80.157 152.788 C 81.045 153.156 81.996 153.344 82.957 153.343 Z" fill="#729B1B" fill-opacity="0.5"/>
  </g>
</svg>